<svg width="45" height="99" viewBox="0 0 45 99" fill="none" xmlns="http://www.w3.org/2000/svg">
<path d="M20.4198 91.3455L20.7225 91.1543C22.6227 93.9488 24.748 96.5812 27.1125 99H33.437C29.9311 96.0233 26.8732 92.6032 24.2714 88.8502C28.9043 85.6485 30.465 78.984 27.7057 73.728L26.683 71.7795L24.9116 72.9045C22.0132 74.745 20.2786 77.9197 19.9064 81.315C19.1741 79.7805 18.5073 78.2123 17.9141 76.6058C23.1566 74.8418 26.2411 68.8388 24.8093 62.9663L24.2795 60.7927L22.3036 61.3755C19.0739 62.3272 16.6541 64.8945 15.4943 68.0625C15.1568 66.384 14.8889 64.6808 14.6966 62.9573C20.1661 62.7323 24.5455 57.8205 24.5455 51.75V49.5H22.5C19.17 49.5 16.2389 51.2775 14.3714 53.9888C14.4368 52.2675 14.5841 50.5597 14.7968 48.8632C20.1252 50.1907 25.5007 46.6942 26.9264 40.8375L27.4561 38.664L25.4802 38.0812C22.2668 37.134 19.0227 38.016 16.5825 40.0972C17.0489 38.4615 17.593 36.8573 18.1964 35.28C23.0298 38.0723 29.0393 36.2272 31.7945 30.978L32.8173 29.0295L31.0459 27.9045C28.1618 26.073 24.8155 26.001 21.9661 27.3217C22.7986 25.875 23.7027 24.4732 24.66 23.1142C28.6711 27.198 34.918 27.1283 38.8186 22.8398L40.2648 21.249L38.8186 19.6583C36.3968 16.9943 33.0648 15.9728 29.925 16.5375L29.2623 15.75H30.6818C38.5895 15.75 45 8.6985 45 0H42.9545C35.2636 0 29.0066 6.67575 28.6691 15.0458L27.2455 13.3582C27.2311 13.3717 27.2189 13.3875 27.2066 13.401C27.6791 9.9855 26.7505 6.37875 24.3593 3.7485L22.9132 2.15775L21.467 3.7485C17.4723 8.14275 17.4723 15.264 21.467 19.6583L21.7248 19.9417C20.5139 21.627 19.395 23.3843 18.3641 25.1978C18.0225 21.753 16.2757 18.522 13.3384 16.6567L11.567 15.5317L10.5443 17.4803C7.71955 22.86 9.39682 29.7405 14.2875 32.8478L14.6127 33.0547C13.8395 35.0235 13.1707 37.0395 12.5959 39.0915C11.4586 35.856 9.00614 33.228 5.72727 32.2628L3.75136 31.68L3.22159 33.8535C1.75909 39.8542 4.99705 46.0238 10.4543 47.6325L10.8123 47.7382C10.528 49.851 10.352 51.984 10.2805 54.1328C8.41705 51.336 5.43477 49.5 2.04545 49.5H0V51.75C0 57.9622 4.57977 63 10.2273 63H10.5852C10.8061 65.133 11.1334 67.2345 11.5589 69.3045C9.10636 67.1535 5.80909 66.24 2.54864 67.2008L0.572727 67.7835L1.1025 69.957C2.565 75.9577 8.17159 79.5195 13.6289 77.913L13.9459 77.8185C14.6577 79.8007 15.4698 81.7335 16.3759 83.6145C13.5061 82.2465 10.1148 82.3027 7.19795 84.1567L5.42659 85.2817L6.44932 87.2303C9.27409 92.6078 15.5291 94.4527 20.4198 91.3455V91.3455Z" fill="#B09259"/>
</svg>
