<svg width="89" height="194" viewBox="0 0 89 194" fill="none" xmlns="http://www.w3.org/2000/svg">
<path d="M40.3858 178.583L40.9845 178.209C44.7427 183.673 48.946 188.819 53.6225 193.548H66.131C59.1971 187.728 53.1492 181.042 48.0034 173.705C57.1663 167.445 60.253 154.416 54.7957 144.141L52.773 140.331L49.2696 142.531C43.5372 146.129 40.1066 152.336 39.3704 158.973C37.9221 155.973 36.6033 152.907 35.4301 149.767C45.7986 146.318 51.8991 134.582 49.0673 123.101L48.0195 118.852L44.1116 119.991C37.7239 121.852 32.9381 126.871 30.6443 133.064C29.9768 129.783 29.4469 126.453 29.0666 123.083C39.8841 122.644 48.5455 113.041 48.5455 101.173V96.774H44.5C37.914 96.774 32.1169 100.249 28.4234 105.55C28.5528 102.185 28.8441 98.8459 29.2648 95.5292C39.8032 98.1245 50.4347 91.2887 53.2544 79.8386L54.3021 75.5893L50.3942 74.45C44.0388 72.5981 37.6227 74.3225 32.7965 78.3914C33.7189 75.1934 34.795 72.0571 35.9884 68.9735C45.5478 74.4324 57.4333 70.8254 62.8825 60.563L64.9053 56.7536L61.4019 54.5542C55.6978 50.9735 49.0795 50.8328 43.4441 53.4149C45.0906 50.5864 46.8787 47.846 48.772 45.1891C56.7051 53.1729 69.06 53.0366 76.7746 44.6524L79.6348 41.5425L76.7746 38.4325C71.9848 33.2243 65.3948 31.2272 59.185 32.3313L57.8743 30.7917H60.6818C76.3215 30.7917 89 17.0058 89 0H84.9545C69.7436 0 57.3686 13.0513 56.7011 29.4149L53.8855 26.1158C53.8571 26.1422 53.8329 26.173 53.8086 26.1994C54.7431 19.522 52.9065 12.4707 48.1773 7.32843L45.3172 4.21847L42.457 7.32843C34.5563 15.9193 34.5563 29.8416 42.457 38.4325L42.9668 38.9867C40.5719 42.2815 38.359 45.7169 36.3201 49.2624C35.6445 42.5278 32.1897 36.2111 26.3804 32.5645L22.877 30.3651L20.8543 34.1744C15.2675 44.692 18.5848 58.1436 28.2575 64.2184L28.9007 64.6231C27.3715 68.472 26.0487 72.4134 24.9119 76.4251C22.6626 70.0996 17.8121 64.9618 11.3273 63.0747L7.41936 61.9354L6.37159 66.1846C3.47909 77.9163 9.88305 89.9779 20.6763 93.123L21.3843 93.3298C20.822 97.4603 20.474 101.63 20.3325 105.831C16.647 100.363 10.7488 96.774 4.04545 96.774H0V101.173C0 113.318 9.05777 123.167 20.2273 123.167H20.9352C21.3721 127.337 22.0194 131.446 22.8609 135.492C18.0104 131.287 11.4891 129.501 5.04064 131.38L1.13273 132.519L2.1805 136.768C5.073 148.5 16.1616 155.463 26.9549 152.322L27.5819 152.138C28.9897 156.013 30.5958 159.792 32.3879 163.469C26.7121 160.794 20.0048 160.904 14.236 164.529L10.7326 166.728L12.7553 170.538C18.3421 181.051 30.7131 184.658 40.3858 178.583V178.583Z" fill="#B09259"/>
</svg>
